<?xml version="1.0" standalone="no"?>
<!DOCTYPE svg PUBLIC "-//W3C//DTD SVG 20010904//EN"
 "http://www.w3.org/TR/2001/REC-SVG-20010904/DTD/svg10.dtd">
<svg version="1.0" xmlns="http://www.w3.org/2000/svg"
 width="200.000000pt" height="200.000000pt" viewBox="0 0 200.000000 200.000000"
 preserveAspectRatio="xMidYMid meet">

<g transform="translate(0.000000,200.000000) scale(0.100000,-0.100000)"
fill="#000000" stroke="none">
<path d="M370 1822 c-111 -124 -170 -315 -170 -555 0 -63 -3 -72 -35 -111 -60
-73 -80 -130 -79 -221 1 -103 21 -146 117 -256 131 -150 286 -269 462 -355
276 -134 556 -169 770 -95 119 41 343 152 383 189 40 38 43 78 7 92 -29 11
-76 3 -255 -42 -290 -74 -510 -28 -678 140 -61 60 -65 63 -94 53 -26 -9 -35
-7 -74 20 -50 34 -54 46 -18 55 22 6 24 10 19 35 -5 22 -3 29 9 29 20 0 20 4
-3 65 -10 28 -24 77 -31 110 -33 164 -152 285 -281 285 -46 0 -46 0 -53 38 -3
20 -6 79 -6 129 0 74 5 106 25 158 26 70 67 135 109 174 14 14 26 27 26 31 0
4 -22 26 -49 48 l-49 42 -52 -58z m84 -11 c17 -18 16 -21 -20 -68 -88 -114
-119 -233 -104 -398 12 -129 12 -125 -3 -125 -7 0 -29 -9 -50 -19 l-37 -19 0
117 c0 227 46 380 148 494 39 43 43 44 66 18z m-157 -707 c3 -9 -2 -60 -12
-113 -21 -115 -16 -162 25 -250 51 -106 211 -248 403 -355 48 -26 87 -50 87
-51 0 -6 -102 36 -158 64 -189 96 -441 332 -481 450 -35 106 26 271 100 271
18 0 32 -6 36 -16z m188 -281 c34 -10 73 -13 121 -9 67 5 72 4 77 -16 10 -36
-2 -41 -92 -35 -111 6 -195 34 -199 67 -3 20 -1 22 20 15 12 -4 46 -13 73 -22z"/>
</g>
</svg>
