<?xml version="1.0" standalone="no"?>
<!DOCTYPE svg PUBLIC "-//W3C//DTD SVG 20010904//EN"
 "http://www.w3.org/TR/2001/REC-SVG-20010904/DTD/svg10.dtd">
<svg version="1.0" xmlns="http://www.w3.org/2000/svg"
 width="400.000000pt" height="400.000000pt" viewBox="0 0 400.000000 400.000000"
 preserveAspectRatio="xMidYMid meet">

<g transform="translate(0.000000,400.000000) scale(0.100000,-0.100000)"
fill="#000000" stroke="none">
<path d="M1835 3994 c-22 -2 -92 -9 -155 -15 -225 -21 -536 -121 -715 -231
-11 -7 -42 -26 -70 -42 -183 -109 -395 -309 -526 -494 -242 -342 -362 -723
-361 -1142 0 -255 49 -499 150 -745 28 -67 110 -226 128 -246 8 -8 14 -21 14
-27 0 -6 6 -17 13 -24 8 -7 25 -31 39 -53 36 -57 210 -257 240 -277 l25 -17
1354 1354 c745 745 1355 1358 1357 1364 3 8 -39 52 -113 120 -39 36 -171 133
-234 172 -308 193 -618 286 -1006 303 -55 2 -118 2 -140 0z m268 -261 l39 -6
-192 -192 -192 -193 -77 24 c-192 60 -442 104 -596 104 -28 0 -55 3 -58 7 -11
10 118 82 253 141 106 47 294 96 435 115 51 7 348 7 388 0z m482 -125 c74 -32
184 -90 274 -143 36 -21 121 -87 121 -93 0 -4 -105 -112 -232 -239 l-233 -233
-42 38 c-23 20 -55 46 -70 58 -54 40 -163 114 -168 114 -3 0 -40 21 -83 48
-42 26 -89 53 -104 59 -16 7 -28 16 -28 21 0 4 94 101 209 215 238 238 202
222 356 155z m-1200 -428 c82 -17 153 -34 157 -38 4 -4 -48 -63 -117 -132
l-124 -124 -58 55 c-99 92 -273 268 -273 275 0 17 272 -6 415 -36z m-265 -465
c0 -6 -55 -66 -123 -133 l-123 -123 -17 53 c-27 88 -67 357 -67 452 l0 91 165
-165 c91 -91 165 -169 165 -175z m750 313 c60 -21 277 -145 347 -200 117 -90
126 -98 119 -106 -3 -4 -104 -104 -223 -223 l-216 -217 -204 204 c-111 112
-203 209 -203 214 0 13 325 340 338 340 5 0 24 -5 42 -12z m-1294 -458 c15
-69 37 -156 49 -195 44 -137 60 -106 -154 -320 -105 -104 -194 -186 -198 -182
-4 4 -7 92 -7 195 -1 140 4 212 18 287 20 112 69 287 99 355 26 60 94 200 109
225 47 76 42 83 50 -85 5 -105 16 -195 34 -280z m961 -265 l193 -191 -223
-222 -222 -222 -38 44 c-20 25 -37 50 -37 55 0 6 -4 11 -8 11 -9 0 -95 129
-133 199 -67 123 -99 187 -99 199 0 8 75 89 168 181 159 160 168 167 186 152
11 -9 106 -102 213 -206z m-704 -421 c15 -27 33 -58 40 -68 6 -11 27 -43 44
-70 30 -47 82 -116 160 -213 l32 -39 -235 -235 -235 -234 -40 45 c-22 25 -56
74 -76 110 -20 36 -41 72 -48 80 -19 25 -104 218 -117 264 l-12 44 214 213
213 212 16 -30 c9 -17 28 -52 44 -79z"/>
<path d="M2036 1972 l-1357 -1357 73 -70 c91 -87 147 -135 158 -135 5 0 13 -6
17 -13 10 -16 110 -87 122 -87 5 0 16 -6 24 -14 17 -18 211 -116 292 -149 407
-164 894 -178 1325 -37 148 48 307 125 430 206 23 16 50 34 59 39 28 18 146
107 166 126 119 109 211 210 276 304 19 27 42 58 51 68 9 11 22 32 28 48 7 16
16 29 21 29 5 0 9 9 9 19 0 11 4 23 10 26 21 13 128 256 158 360 60 204 68
246 83 442 24 292 -25 624 -127 864 -13 31 -24 60 -24 65 0 20 -136 272 -168
311 -12 15 -22 31 -22 35 0 4 -8 16 -17 27 -10 10 -47 54 -82 99 -35 44 -70
83 -77 86 -8 3 -14 11 -14 19 0 7 -13 20 -28 29 l-28 17 -1358 -1357z m1364
988 c0 -5 14 -25 30 -43 17 -19 30 -38 30 -43 0 -4 6 -15 14 -23 18 -21 118
-220 149 -296 48 -118 63 -90 -173 -326 -202 -203 -240 -231 -240 -184 0 9
-11 31 -25 49 -14 18 -25 38 -25 45 0 7 -11 27 -25 45 -14 18 -25 36 -25 39 0
11 -113 172 -127 180 -7 4 -13 13 -13 20 0 7 -16 28 -35 47 -19 19 -35 39 -35
44 0 6 104 115 232 243 196 196 234 230 250 222 10 -5 18 -14 18 -19z m-605
-694 c30 -39 38 -49 88 -125 32 -48 112 -196 158 -293 10 -19 0 -31 -199 -233
-73 -74 -136 -135 -140 -135 -4 0 -101 95 -217 210 l-210 210 224 224 225 225
20 -23 c12 -12 35 -39 51 -60z m944 -344 c1 -167 -2 -209 -24 -320 -27 -134
-51 -218 -92 -317 -33 -79 -30 -71 -86 -180 -6 -11 -17 -32 -24 -46 -7 -15
-20 -32 -28 -39 -13 -11 -15 -8 -15 16 0 16 -7 95 -14 175 -15 152 -38 266
-87 434 -16 55 -29 104 -29 110 0 5 87 96 192 202 155 155 194 189 200 175 3
-9 7 -104 7 -210z m-1411 -402 l210 -210 -169 -170 c-106 -106 -177 -170 -189
-170 -21 0 -223 102 -251 126 -8 8 -19 14 -22 14 -6 0 -51 30 -150 100 -12 8
-37 30 -57 47 l-35 33 220 220 c121 121 223 220 227 220 4 0 101 -95 216 -210z
m831 -22 c46 -206 61 -312 61 -428 l0 -122 -43 44 c-23 23 -101 103 -172 176
l-129 133 124 124 c69 69 130 125 136 125 6 0 16 -24 23 -52z m-287 -521 c84
-85 162 -164 173 -176 l20 -23 -95 6 c-52 4 -151 16 -220 27 -69 11 -141 22
-160 25 -30 4 -130 33 -138 39 -4 3 251 255 259 255 4 0 76 -69 161 -153z
m-1358 119 c6 -8 45 -39 86 -69 41 -31 82 -62 91 -70 9 -8 45 -31 80 -53 35
-21 66 -41 69 -45 3 -3 21 -14 40 -24 19 -10 52 -27 73 -38 20 -10 37 -23 37
-27 0 -5 -95 -104 -210 -219 -238 -238 -207 -223 -335 -169 -113 48 -245 117
-276 144 -8 8 -20 14 -26 14 -10 0 -20 8 -93 69 l-35 30 235 236 c129 129 239
235 244 235 5 0 14 -6 20 -14z m798 -447 c21 -5 55 -16 75 -24 63 -24 331 -75
398 -75 34 0 96 -3 138 -6 72 -7 76 -8 58 -23 -45 -39 -293 -152 -416 -190
-171 -54 -503 -86 -658 -64 l-58 8 197 198 c142 142 202 196 213 191 9 -3 33
-10 53 -15z"/>
</g>
</svg>
